<svg width="240" height="240" viewBox="0 0 240 240" fill="none" xmlns="http://www.w3.org/2000/svg">
<g opacity="0.24">
<path d="M239.988 4.04714H235.941V0H235.305V4.04714H231.258V4.62531H235.305V8.67245H235.941V4.62531H239.988V4.04714Z" fill="white"/>
<path d="M239.988 32.9378H235.941V28.8906H235.305V32.9378H231.258V33.5159H235.305V37.5631H235.941V33.5159H239.988V32.9378Z" fill="white"/>
<path d="M239.989 61.8596H235.942V57.8125H235.306V61.8596H231.259V62.4378H235.306V66.485H235.942V62.4378H239.989V61.8596Z" fill="white"/>
<path d="M239.989 90.7659H235.942V86.7188H235.306V90.7659H231.259V91.3441H235.306V95.3912H235.942V91.3441H239.989V90.7659Z" fill="white"/>
<path d="M239.989 119.672H235.942V115.625H235.306V119.672H231.259V120.25H235.306V124.297H235.942V120.25H239.989V119.672Z" fill="white"/>
<path d="M239.989 148.578H235.942V144.531H235.306V148.578H231.259V149.157H235.306V153.204H235.942V149.157H239.989V148.578Z" fill="white"/>
<path d="M239.989 177.485H235.942V173.438H235.306V177.485H231.259V178.063H235.306V182.11H235.942V178.063H239.989V177.485Z" fill="white"/>
<path d="M239.988 206.391H235.941V202.344H235.305V206.391H231.258V206.969H235.305V211.016H235.941V206.969H239.988V206.391Z" fill="white"/>
<path d="M239.988 235.297H235.941V231.25H235.305V235.297H231.258V235.875H235.305V239.922H235.941V235.875H239.988V235.297Z" fill="white"/>
<path d="M211.082 4.04714H207.035V0H206.399V4.04714H202.352V4.62531H206.399V8.67245H207.035V4.62531H211.082V4.04714Z" fill="white"/>
<path d="M211.074 32.9378H207.027V28.8906H206.391V32.9378H202.344V33.5159H206.391V37.5631H207.027V33.5159H211.074V32.9378Z" fill="white"/>
<path d="M211.082 61.8596H207.035V57.8125H206.399V61.8596H202.352V62.4378H206.399V66.485H207.035V62.4378H211.082V61.8596Z" fill="white"/>
<path d="M211.082 90.7659H207.035V86.7188H206.399V90.7659H202.352V91.3441H206.399V95.3912H207.035V91.3441H211.082V90.7659Z" fill="white"/>
<path d="M211.074 119.672H207.027V115.625H206.391V119.672H202.344V120.25H206.391V124.297H207.027V120.25H211.074V119.672Z" fill="white"/>
<path d="M211.074 148.578H207.027V144.531H206.391V148.578H202.344V149.157H206.391V153.204H207.027V149.157H211.074V148.578Z" fill="white"/>
<path d="M211.074 177.485H207.027V173.438H206.391V177.485H202.344V178.063H206.391V182.11H207.027V178.063H211.074V177.485Z" fill="white"/>
<path d="M211.074 206.391H207.027V202.344H206.391V206.391H202.344V206.969H206.391V211.016H207.027V206.969H211.074V206.391Z" fill="white"/>
<path d="M211.074 235.297H207.027V231.25H206.391V235.297H202.344V235.875H206.391V239.922H207.027V235.875H211.074V235.297Z" fill="white"/>
<path d="M182.168 4.04714H178.121V0H177.485V4.04714H173.438V4.62531H177.485V8.67245H178.121V4.62531H182.168V4.04714Z" fill="white"/>
<path d="M182.168 32.9378H178.121V28.8906H177.485V32.9378H173.438V33.5159H177.485V37.5631H178.121V33.5159H182.168V32.9378Z" fill="white"/>
<path d="M182.168 61.8596H178.121V57.8125H177.485V61.8596H173.438V62.4378H177.485V66.485H178.121V62.4378H182.168V61.8596Z" fill="white"/>
<path d="M182.168 90.7659H178.121V86.7188H177.485V90.7659H173.438V91.3441H177.485V95.3912H178.121V91.3441H182.168V90.7659Z" fill="white"/>
<path d="M182.168 119.672H178.121V115.625H177.485V119.672H173.438V120.25H177.485V124.297H178.121V120.25H182.168V119.672Z" fill="white"/>
<path d="M182.168 148.578H178.121V144.531H177.485V148.578H173.438V149.157H177.485V153.204H178.121V149.157H182.168V148.578Z" fill="white"/>
<path d="M182.168 177.485H178.121V173.438H177.485V177.485H173.438V178.063H177.485V182.11H178.121V178.063H182.168V177.485Z" fill="white"/>
<path d="M182.168 206.391H178.121V202.344H177.485V206.391H173.438V206.969H177.485V211.016H178.121V206.969H182.168V206.391Z" fill="white"/>
<path d="M182.168 235.297H178.121V231.25H177.485V235.297H173.438V235.875H177.485V239.922H178.121V235.875H182.168V235.297Z" fill="white"/>
<path d="M153.261 4.04714H149.214V0H148.578V4.04714H144.531V4.62531H148.578V8.67245H149.214V4.62531H153.261V4.04714Z" fill="white"/>
<path d="M153.261 32.9378H149.214V28.8906H148.578V32.9378H144.531V33.5159H148.578V37.5631H149.214V33.5159H153.261V32.9378Z" fill="white"/>
<path d="M153.261 61.8596H149.214V57.8125H148.578V61.8596H144.531V62.4378H148.578V66.485H149.214V62.4378H153.261V61.8596Z" fill="white"/>
<path d="M153.261 90.7659H149.214V86.7188H148.578V90.7659H144.531V91.3441H148.578V95.3912H149.214V91.3441H153.261V90.7659Z" fill="white"/>
<path d="M153.261 119.672H149.214V115.625H148.578V119.672H144.531V120.25H148.578V124.297H149.214V120.25H153.261V119.672Z" fill="white"/>
<path d="M153.261 148.578H149.214V144.531H148.578V148.578H144.531V149.157H148.578V153.204H149.214V149.157H153.261V148.578Z" fill="white"/>
<path d="M153.261 177.485H149.214V173.438H148.578V177.485H144.531V178.063H148.578V182.11H149.214V178.063H153.261V177.485Z" fill="white"/>
<path d="M153.261 206.391H149.214V202.344H148.578V206.391H144.531V206.969H148.578V211.016H149.214V206.969H153.261V206.391Z" fill="white"/>
<path d="M153.261 235.297H149.214V231.25H148.578V235.297H144.531V235.875H148.578V239.922H149.214V235.875H153.261V235.297Z" fill="white"/>
<path d="M124.347 4.04714H120.3V0H119.664V4.04714H115.617V4.62531H119.664V8.67245H120.3V4.62531H124.347V4.04714Z" fill="white"/>
<path d="M124.347 32.9378H120.3V28.8906H119.664V32.9378H115.617V33.5159H119.664V37.5631H120.3V33.5159H124.347V32.9378Z" fill="white"/>
<path d="M124.347 61.8596H120.3V57.8125H119.664V61.8596H115.617V62.4378H119.664V66.485H120.3V62.4378H124.347V61.8596Z" fill="white"/>
<path d="M124.347 90.7659H120.3V86.7188H119.664V90.7659H115.617V91.3441H119.664V95.3912H120.3V91.3441H124.347V90.7659Z" fill="white"/>
<path d="M124.347 119.672H120.3V115.625H119.664V119.672H115.617V120.25H119.664V124.297H120.3V120.25H124.347V119.672Z" fill="white"/>
<path d="M124.347 148.578H120.3V144.531H119.664V148.578H115.617V149.157H119.664V153.204H120.3V149.157H124.347V148.578Z" fill="white"/>
<path d="M124.347 177.485H120.3V173.438H119.664V177.485H115.617V178.063H119.664V182.11H120.3V178.063H124.347V177.485Z" fill="white"/>
<path d="M124.347 206.391H120.3V202.344H119.664V206.391H115.617V206.969H119.664V211.016H120.3V206.969H124.347V206.391Z" fill="white"/>
<path d="M124.347 235.297H120.3V231.25H119.664V235.297H115.617V235.875H119.664V239.922H120.3V235.875H124.347V235.297Z" fill="white"/>
<path d="M95.4489 4.04714H91.4018V0H90.7658V4.04714H86.7188V4.62531H90.7658V8.67245H91.4018V4.62531H95.4489V4.04714Z" fill="white"/>
<path d="M95.4489 32.9378H91.4018V28.8906H90.7658V32.9378H86.7188V33.5159H90.7658V37.5631H91.4018V33.5159H95.4489V32.9378Z" fill="white"/>
<path d="M95.449 61.8596H91.402V57.8125H90.7659V61.8596H86.7189V62.4378H90.7659V66.485H91.402V62.4378H95.449V61.8596Z" fill="white"/>
<path d="M95.449 90.7659H91.402V86.7188H90.7659V90.7659H86.7189V91.3441H90.7659V95.3912H91.402V91.3441H95.449V90.7659Z" fill="white"/>
<path d="M95.4489 119.672H91.4018V115.625H90.7658V119.672H86.7188V120.25H90.7658V124.297H91.4018V120.25H95.4489V119.672Z" fill="white"/>
<path d="M95.4489 148.578H91.4018V144.531H90.7658V148.578H86.7188V149.157H90.7658V153.204H91.4018V149.157H95.4489V148.578Z" fill="white"/>
<path d="M95.4489 177.485H91.4018V173.438H90.7658V177.485H86.7188V178.063H90.7658V182.11H91.4018V178.063H95.4489V177.485Z" fill="white"/>
<path d="M95.4489 206.391H91.4018V202.344H90.7658V206.391H86.7188V206.969H90.7658V211.016H91.4018V206.969H95.4489V206.391Z" fill="white"/>
<path d="M95.4489 235.297H91.4018V231.25H90.7658V235.297H86.7188V235.875H90.7658V239.922H91.4018V235.875H95.4489V235.297Z" fill="white"/>
<path d="M66.5348 4.04714H62.4878V0H61.8517V4.04714H57.8047V4.62531H61.8517V8.67245H62.4878V4.62531H66.5348V4.04714Z" fill="white"/>
<path d="M66.5348 32.9378H62.4878V28.8906H61.8517V32.9378H57.8047V33.5159H61.8517V37.5631H62.4878V33.5159H66.5348V32.9378Z" fill="white"/>
<path d="M66.5346 61.8596H62.4876V57.8125H61.8516V61.8596H57.8045V62.4378H61.8516V66.485H62.4876V62.4378H66.5346V61.8596Z" fill="white"/>
<path d="M66.5346 90.7659H62.4876V86.7188H61.8516V90.7659H57.8045V91.3441H61.8516V95.3912H62.4876V91.3441H66.5346V90.7659Z" fill="white"/>
<path d="M66.5348 119.672H62.4878V115.625H61.8517V119.672H57.8047V120.25H61.8517V124.297H62.4878V120.25H66.5348V119.672Z" fill="white"/>
<path d="M66.5348 148.578H62.4878V144.531H61.8517V148.578H57.8047V149.157H61.8517V153.204H62.4878V149.157H66.5348V148.578Z" fill="white"/>
<path d="M66.5348 177.485H62.4878V173.438H61.8517V177.485H57.8047V178.063H61.8517V182.11H62.4878V178.063H66.5348V177.485Z" fill="white"/>
<path d="M66.5348 206.391H62.4878V202.344H61.8517V206.391H57.8047V206.969H61.8517V211.016H62.4878V206.969H66.5348V206.391Z" fill="white"/>
<path d="M66.5348 235.297H62.4878V231.25H61.8517V235.297H57.8047V235.875H61.8517V239.922H62.4878V235.875H66.5348V235.297Z" fill="white"/>
<path d="M37.6364 4.04714H33.5893V0H32.9533V4.04714H28.9062V4.62531H32.9533V8.67245H33.5893V4.62531H37.6364V4.04714Z" fill="white"/>
<path d="M37.6364 32.9378H33.5893V28.8906H32.9533V32.9378H28.9062V33.5159H32.9533V37.5631H33.5893V33.5159H37.6364V32.9378Z" fill="white"/>
<path d="M37.6365 61.8596H33.5895V57.8125H32.9534V61.8596H28.9064V62.4378H32.9534V66.485H33.5895V62.4378H37.6365V61.8596Z" fill="white"/>
<path d="M37.6365 90.7659H33.5895V86.7188H32.9534V90.7659H28.9064V91.3441H32.9534V95.3912H33.5895V91.3441H37.6365V90.7659Z" fill="white"/>
<path d="M37.6364 119.672H33.5893V115.625H32.9533V119.672H28.9062V120.25H32.9533V124.297H33.5893V120.25H37.6364V119.672Z" fill="white"/>
<path d="M37.6364 148.578H33.5893V144.531H32.9533V148.578H28.9062V149.157H32.9533V153.204H33.5893V149.157H37.6364V148.578Z" fill="white"/>
<path d="M37.6364 177.485H33.5893V173.438H32.9533V177.485H28.9062V178.063H32.9533V182.11H33.5893V178.063H37.6364V177.485Z" fill="white"/>
<path d="M37.6364 206.391H33.5893V202.344H32.9533V206.391H28.9062V206.969H32.9533V211.016H33.5893V206.969H37.6364V206.391Z" fill="white"/>
<path d="M37.6364 235.297H33.5893V231.25H32.9533V235.297H28.9062V235.875H32.9533V239.922H33.5893V235.875H37.6364V235.297Z" fill="white"/>
<path d="M8.7303 4.04714H4.68325V0H4.04723V4.04714H0.000183105V4.62531H4.04723V8.67245H4.68325V4.62531H8.7303V4.04714Z" fill="white"/>
<path d="M8.73011 32.9378H4.68307V28.8906H4.04705V32.9378H0V33.5159H4.04705V37.5631H4.68307V33.5159H8.73011V32.9378Z" fill="white"/>
<path d="M8.73023 61.8596H4.68319V57.8125H4.04717V61.8596H0.00012207V62.4378H4.04717V66.485H4.68319V62.4378H8.73023V61.8596Z" fill="white"/>
<path d="M8.73023 90.7659H4.68319V86.7188H4.04717V90.7659H0.00012207V91.3441H4.04717V95.3912H4.68319V91.3441H8.73023V90.7659Z" fill="white"/>
<path d="M8.73011 119.672H4.68307V115.625H4.04705V119.672H0V120.25H4.04705V124.297H4.68307V120.25H8.73011V119.672Z" fill="white"/>
<path d="M8.73011 148.578H4.68307V144.531H4.04705V148.578H0V149.157H4.04705V153.204H4.68307V149.157H8.73011V148.578Z" fill="white"/>
<path d="M8.73011 177.485H4.68307V173.438H4.04705V177.485H0V178.063H4.04705V182.11H4.68307V178.063H8.73011V177.485Z" fill="white"/>
<path d="M8.73011 206.391H4.68307V202.344H4.04705V206.391H0V206.969H4.04705V211.016H4.68307V206.969H8.73011V206.391Z" fill="white"/>
<path d="M8.73011 235.297H4.68307V231.25H4.04705V235.297H0V235.875H4.04705V239.922H4.68307V235.875H8.73011V235.297Z" fill="white"/>
</g>
</svg>
