<svg width="240" height="240" viewBox="0 0 240 240" fill="none" xmlns="http://www.w3.org/2000/svg">
<g opacity="0.24">
<path d="M239.988 4.0552H235.941V0.00805664H235.305V4.0552H231.258V4.63336H235.305V8.68051H235.941V4.63336H239.988V4.0552Z" fill="black"/>
<path d="M239.988 32.9615H235.941V28.9143H235.305V32.9615H231.258V33.5396H235.305V37.5868H235.941V33.5396H239.988V32.9615Z" fill="black"/>
<path d="M239.988 61.8677H235.941V57.8206H235.305V61.8677H231.258V62.4459H235.305V66.493H235.941V62.4459H239.988V61.8677Z" fill="black"/>
<path d="M239.988 90.774H235.941V86.7268H235.305V90.774H231.258V91.3521H235.305V95.3993H235.941V91.3521H239.988V90.774Z" fill="black"/>
<path d="M239.988 119.68H235.941V115.633H235.305V119.68H231.258V120.258H235.305V124.306H235.941V120.258H239.988V119.68Z" fill="black"/>
<path d="M239.988 148.586H235.941V144.539H235.305V148.586H231.258V149.165H235.305V153.212H235.941V149.165H239.988V148.586Z" fill="black"/>
<path d="M239.988 177.493H235.941V173.446H235.305V177.493H231.258V178.071H235.305V182.118H235.941V178.071H239.988V177.493Z" fill="black"/>
<path d="M239.988 206.399H235.941V202.352H235.305V206.399H231.258V206.977H235.305V211.024H235.941V206.977H239.988V206.399Z" fill="black"/>
<path d="M239.988 235.305H235.941V231.258H235.305V235.305H231.258V235.883H235.305V239.931H235.941V235.883H239.988V235.305Z" fill="black"/>
<path d="M211.082 4.0552H207.035V0.00805664H206.399V4.0552H202.352V4.63336H206.399V8.68051H207.035V4.63336H211.082V4.0552Z" fill="black"/>
<path d="M211.074 32.9615H207.027V28.9143H206.391V32.9615H202.344V33.5396H206.391V37.5868H207.027V33.5396H211.074V32.9615Z" fill="black"/>
<path d="M211.082 61.8677H207.035V57.8206H206.399V61.8677H202.352V62.4459H206.399V66.493H207.035V62.4459H211.082V61.8677Z" fill="black"/>
<path d="M211.082 90.774H207.035V86.7268H206.399V90.774H202.352V91.3521H206.399V95.3993H207.035V91.3521H211.082V90.774Z" fill="black"/>
<path d="M211.074 119.68H207.027V115.633H206.391V119.68H202.344V120.258H206.391V124.306H207.027V120.258H211.074V119.68Z" fill="black"/>
<path d="M211.074 148.586H207.027V144.539H206.391V148.586H202.344V149.165H206.391V153.212H207.027V149.165H211.074V148.586Z" fill="black"/>
<path d="M211.074 177.493H207.027V173.446H206.391V177.493H202.344V178.071H206.391V182.118H207.027V178.071H211.074V177.493Z" fill="black"/>
<path d="M211.074 206.399H207.027V202.352H206.391V206.399H202.344V206.977H206.391V211.024H207.027V206.977H211.074V206.399Z" fill="black"/>
<path d="M211.074 235.305H207.027V231.258H206.391V235.305H202.344V235.883H206.391V239.931H207.027V235.883H211.074V235.305Z" fill="black"/>
<path d="M182.168 4.0552H178.121V0.00805664H177.485V4.0552H173.438V4.63336H177.485V8.68051H178.121V4.63336H182.168V4.0552Z" fill="black"/>
<path d="M182.168 32.9615H178.121V28.9143H177.485V32.9615H173.438V33.5396H177.485V37.5868H178.121V33.5396H182.168V32.9615Z" fill="black"/>
<path d="M182.168 61.8677H178.121V57.8206H177.485V61.8677H173.438V62.4459H177.485V66.493H178.121V62.4459H182.168V61.8677Z" fill="black"/>
<path d="M182.168 90.774H178.121V86.7268H177.485V90.774H173.438V91.3521H177.485V95.3993H178.121V91.3521H182.168V90.774Z" fill="black"/>
<path d="M182.168 119.68H178.121V115.633H177.485V119.68H173.438V120.258H177.485V124.306H178.121V120.258H182.168V119.68Z" fill="black"/>
<path d="M182.168 148.586H178.121V144.539H177.485V148.586H173.438V149.165H177.485V153.212H178.121V149.165H182.168V148.586Z" fill="black"/>
<path d="M182.168 177.493H178.121V173.446H177.485V177.493H173.438V178.071H177.485V182.118H178.121V178.071H182.168V177.493Z" fill="black"/>
<path d="M182.168 206.399H178.121V202.352H177.485V206.399H173.438V206.977H177.485V211.024H178.121V206.977H182.168V206.399Z" fill="black"/>
<path d="M182.168 235.305H178.121V231.258H177.485V235.305H173.438V235.883H177.485V239.931H178.121V235.883H182.168V235.305Z" fill="black"/>
<path d="M153.261 4.0552H149.214V0.00805664H148.578V4.0552H144.531V4.63336H148.578V8.68051H149.214V4.63336H153.261V4.0552Z" fill="black"/>
<path d="M153.261 32.9615H149.214V28.9143H148.578V32.9615H144.531V33.5396H148.578V37.5868H149.214V33.5396H153.261V32.9615Z" fill="black"/>
<path d="M153.261 61.8677H149.214V57.8206H148.578V61.8677H144.531V62.4459H148.578V66.493H149.214V62.4459H153.261V61.8677Z" fill="black"/>
<path d="M153.261 90.774H149.214V86.7268H148.578V90.774H144.531V91.3521H148.578V95.3993H149.214V91.3521H153.261V90.774Z" fill="black"/>
<path d="M153.261 119.68H149.214V115.633H148.578V119.68H144.531V120.258H148.578V124.306H149.214V120.258H153.261V119.68Z" fill="black"/>
<path d="M153.261 148.586H149.214V144.539H148.578V148.586H144.531V149.165H148.578V153.212H149.214V149.165H153.261V148.586Z" fill="black"/>
<path d="M153.261 177.493H149.214V173.446H148.578V177.493H144.531V178.071H148.578V182.118H149.214V178.071H153.261V177.493Z" fill="black"/>
<path d="M153.261 206.399H149.214V202.352H148.578V206.399H144.531V206.977H148.578V211.024H149.214V206.977H153.261V206.399Z" fill="black"/>
<path d="M153.261 235.305H149.214V231.258H148.578V235.305H144.531V235.883H148.578V239.931H149.214V235.883H153.261V235.305Z" fill="black"/>
<path d="M124.348 4.0552H120.301V0.00805664H119.665V4.0552H115.618V4.63336H119.665V8.68051H120.301V4.63336H124.348V4.0552Z" fill="black"/>
<path d="M124.348 32.9615H120.301V28.9143H119.665V32.9615H115.618V33.5396H119.665V37.5868H120.301V33.5396H124.348V32.9615Z" fill="black"/>
<path d="M124.348 61.8677H120.301V57.8206H119.665V61.8677H115.618V62.4459H119.665V66.493H120.301V62.4459H124.348V61.8677Z" fill="black"/>
<path d="M124.348 90.774H120.301V86.7268H119.665V90.774H115.618V91.3521H119.665V95.3993H120.301V91.3521H124.348V90.774Z" fill="black"/>
<path d="M124.348 119.68H120.301V115.633H119.665V119.68H115.618V120.258H119.665V124.306H120.301V120.258H124.348V119.68Z" fill="black"/>
<path d="M124.348 148.586H120.301V144.539H119.665V148.586H115.618V149.165H119.665V153.212H120.301V149.165H124.348V148.586Z" fill="black"/>
<path d="M124.348 177.493H120.301V173.446H119.665V177.493H115.618V178.071H119.665V182.118H120.301V178.071H124.348V177.493Z" fill="black"/>
<path d="M124.348 206.399H120.301V202.352H119.665V206.399H115.618V206.977H119.665V211.024H120.301V206.977H124.348V206.399Z" fill="black"/>
<path d="M124.348 235.305H120.301V231.258H119.665V235.305H115.618V235.883H119.665V239.931H120.301V235.883H124.348V235.305Z" fill="black"/>
<path d="M95.4489 4.0552H91.4019V0.00805664H90.7659V4.0552H86.7188V4.63336H90.7659V8.68051H91.4019V4.63336H95.4489V4.0552Z" fill="black"/>
<path d="M95.4489 32.9615H91.4019V28.9143H90.7659V32.9615H86.7188V33.5396H90.7659V37.5868H91.4019V33.5396H95.4489V32.9615Z" fill="black"/>
<path d="M95.4489 61.8677H91.4019V57.8206H90.7659V61.8677H86.7188V62.4459H90.7659V66.493H91.4019V62.4459H95.4489V61.8677Z" fill="black"/>
<path d="M95.4489 90.774H91.4019V86.7268H90.7659V90.774H86.7188V91.3521H90.7659V95.3993H91.4019V91.3521H95.4489V90.774Z" fill="black"/>
<path d="M95.4489 119.68H91.4019V115.633H90.7659V119.68H86.7188V120.258H90.7659V124.306H91.4019V120.258H95.4489V119.68Z" fill="black"/>
<path d="M95.4489 148.586H91.4019V144.539H90.7659V148.586H86.7188V149.165H90.7659V153.212H91.4019V149.165H95.4489V148.586Z" fill="black"/>
<path d="M95.4489 177.493H91.4019V173.446H90.7659V177.493H86.7188V178.071H90.7659V182.118H91.4019V178.071H95.4489V177.493Z" fill="black"/>
<path d="M95.4489 206.399H91.4019V202.352H90.7659V206.399H86.7188V206.977H90.7659V211.024H91.4019V206.977H95.4489V206.399Z" fill="black"/>
<path d="M95.4489 235.305H91.4019V231.258H90.7659V235.305H86.7188V235.883H90.7659V239.931H91.4019V235.883H95.4489V235.305Z" fill="black"/>
<path d="M66.5358 4.0552H62.4887V0.00805664H61.8527V4.0552H57.8057V4.63336H61.8527V8.68051H62.4887V4.63336H66.5358V4.0552Z" fill="black"/>
<path d="M66.5358 32.9615H62.4887V28.9143H61.8527V32.9615H57.8057V33.5396H61.8527V37.5868H62.4887V33.5396H66.5358V32.9615Z" fill="black"/>
<path d="M66.5358 61.8677H62.4887V57.8206H61.8527V61.8677H57.8057V62.4459H61.8527V66.493H62.4887V62.4459H66.5358V61.8677Z" fill="black"/>
<path d="M66.5358 90.774H62.4887V86.7268H61.8527V90.774H57.8057V91.3521H61.8527V95.3993H62.4887V91.3521H66.5358V90.774Z" fill="black"/>
<path d="M66.5358 119.68H62.4887V115.633H61.8527V119.68H57.8057V120.258H61.8527V124.306H62.4887V120.258H66.5358V119.68Z" fill="black"/>
<path d="M66.5358 148.586H62.4887V144.539H61.8527V148.586H57.8057V149.165H61.8527V153.212H62.4887V149.165H66.5358V148.586Z" fill="black"/>
<path d="M66.5358 177.493H62.4887V173.446H61.8527V177.493H57.8057V178.071H61.8527V182.118H62.4887V178.071H66.5358V177.493Z" fill="black"/>
<path d="M66.5358 206.399H62.4887V202.352H61.8527V206.399H57.8057V206.977H61.8527V211.024H62.4887V206.977H66.5358V206.399Z" fill="black"/>
<path d="M66.5358 235.305H62.4887V231.258H61.8527V235.305H57.8057V235.883H61.8527V239.931H62.4887V235.883H66.5358V235.305Z" fill="black"/>
<path d="M37.6364 4.0552H33.5894V0.00805664H32.9534V4.0552H28.9063V4.63336H32.9534V8.68051H33.5894V4.63336H37.6364V4.0552Z" fill="black"/>
<path d="M37.6364 32.9615H33.5894V28.9143H32.9534V32.9615H28.9063V33.5396H32.9534V37.5868H33.5894V33.5396H37.6364V32.9615Z" fill="black"/>
<path d="M37.6364 61.8677H33.5894V57.8206H32.9534V61.8677H28.9063V62.4459H32.9534V66.493H33.5894V62.4459H37.6364V61.8677Z" fill="black"/>
<path d="M37.6364 90.774H33.5894V86.7268H32.9534V90.774H28.9063V91.3521H32.9534V95.3993H33.5894V91.3521H37.6364V90.774Z" fill="black"/>
<path d="M37.6364 119.68H33.5894V115.633H32.9534V119.68H28.9063V120.258H32.9534V124.306H33.5894V120.258H37.6364V119.68Z" fill="black"/>
<path d="M37.6364 148.586H33.5894V144.539H32.9534V148.586H28.9063V149.165H32.9534V153.212H33.5894V149.165H37.6364V148.586Z" fill="black"/>
<path d="M37.6364 177.493H33.5894V173.446H32.9534V177.493H28.9063V178.071H32.9534V182.118H33.5894V178.071H37.6364V177.493Z" fill="black"/>
<path d="M37.6364 206.399H33.5894V202.352H32.9534V206.399H28.9063V206.977H32.9534V211.024H33.5894V206.977H37.6364V206.399Z" fill="black"/>
<path d="M37.6364 235.305H33.5894V231.258H32.9534V235.305H28.9063V235.883H32.9534V239.931H33.5894V235.883H37.6364V235.305Z" fill="black"/>
<path d="M8.7303 4.0552H4.68325V0.00805664H4.04723V4.0552H0.000183105V4.63336H4.04723V8.68051H4.68325V4.63336H8.7303V4.0552Z" fill="black"/>
<path d="M8.73011 32.9615H4.68307V28.9143H4.04705V32.9615H0V33.5396H4.04705V37.5868H4.68307V33.5396H8.73011V32.9615Z" fill="black"/>
<path d="M8.73011 61.8677H4.68307V57.8206H4.04705V61.8677H0V62.4459H4.04705V66.493H4.68307V62.4459H8.73011V61.8677Z" fill="black"/>
<path d="M8.73011 90.774H4.68307V86.7268H4.04705V90.774H0V91.3521H4.04705V95.3993H4.68307V91.3521H8.73011V90.774Z" fill="black"/>
<path d="M8.73011 119.68H4.68307V115.633H4.04705V119.68H0V120.258H4.04705V124.306H4.68307V120.258H8.73011V119.68Z" fill="black"/>
<path d="M8.73011 148.586H4.68307V144.539H4.04705V148.586H0V149.165H4.04705V153.212H4.68307V149.165H8.73011V148.586Z" fill="black"/>
<path d="M8.73011 177.493H4.68307V173.446H4.04705V177.493H0V178.071H4.04705V182.118H4.68307V178.071H8.73011V177.493Z" fill="black"/>
<path d="M8.73011 206.399H4.68307V202.352H4.04705V206.399H0V206.977H4.04705V211.024H4.68307V206.977H8.73011V206.399Z" fill="black"/>
<path d="M8.73011 235.305H4.68307V231.258H4.04705V235.305H0V235.883H4.04705V239.931H4.68307V235.883H8.73011V235.305Z" fill="black"/>
</g>
</svg>
