<svg width="74" height="74" viewBox="0 0 74 74" fill="none" xmlns="http://www.w3.org/2000/svg">
<circle cx="37" cy="37" r="37" fill="url(#paint0_linear_1_1320)" fill-opacity="0.3"/>
<path d="M69 37C69 54.6731 54.6731 69 37 69C19.3269 69 5 54.6731 5 37C5 19.3269 19.3269 5 37 5C54.6731 5 69 19.3269 69 37Z" fill="url(#paint1_linear_1_1320)"/>
<g filter="url(#filter0_d_1_1320)">
<path d="M49.4172 37.7172C49.4485 37.177 49.2641 36.6465 48.9046 36.2421C48.545 35.8377 48.0397 35.5926 47.4995 35.5604C46.9593 35.5283 46.4285 35.7118 46.0235 36.0706C45.6185 36.4295 45.3725 36.9344 45.3394 37.4745L45.3287 37.6552C45.3234 37.744 45.283 37.8271 45.2165 37.8861C45.15 37.9452 45.0627 37.9754 44.9739 37.9701C44.8851 37.9648 44.8021 37.9245 44.743 37.8579C44.684 37.7914 44.6538 37.7042 44.6591 37.6154L44.6698 37.4346L44.8677 34.1103C44.8991 33.5675 44.7138 33.0343 44.3525 32.628C43.9912 32.2216 43.4833 31.9752 42.9405 31.9429C42.3993 31.9133 41.8683 32.0991 41.4635 32.4595C41.0587 32.82 40.8129 33.326 40.7799 33.867L40.5712 37.3721C40.5659 37.4609 40.5256 37.5439 40.4591 37.6029C40.3925 37.662 40.3053 37.6922 40.2165 37.6869C40.1277 37.6816 40.0446 37.6413 39.9856 37.5748C39.9265 37.5082 39.8963 37.421 39.9016 37.3322L40.2671 31.1925C40.2994 30.6491 40.1146 30.1151 39.7532 29.708C39.3918 29.3009 38.8835 29.054 38.3401 29.0217C37.7972 28.9903 37.264 29.1755 36.8576 29.5368C36.4513 29.8981 36.2049 30.4059 36.1725 30.9487L35.8079 37.0751C35.8026 37.1639 35.7623 37.2469 35.6957 37.306C35.6292 37.365 35.5419 37.3952 35.4532 37.3899C35.3644 37.3847 35.2813 37.3443 35.2223 37.2778C35.1632 37.2113 35.133 37.124 35.1383 37.0352L35.8636 24.8495C35.8799 24.5566 35.8311 24.2637 35.7207 23.992C35.6102 23.7202 35.4409 23.4763 35.225 23.2777C35.009 23.0792 34.7517 22.931 34.4716 22.8437C34.1916 22.7565 33.8956 22.7324 33.6051 22.7732C33.1453 22.8476 32.7256 23.0791 32.4174 23.4284C32.1093 23.7776 31.9318 24.2229 31.9154 24.6884L30.9473 40.9517C30.9473 40.9517 30.935 41.1592 30.7196 40.9381C29.5168 39.6974 28.6829 38.2401 27.9919 37.2616C27.6864 36.8405 27.2383 36.5447 26.731 36.4292C26.2236 36.3138 25.6916 36.3865 25.2339 36.6338C24.0417 37.3591 24.0266 38.7423 24.7289 39.8122C25.4313 40.882 27.0253 43.5672 27.0253 43.5672C27.0253 43.5672 31.1159 50.8759 31.4686 51.4982C33.0501 54.2801 35.7261 56.4551 39.1511 56.659C41.419 56.7939 43.6556 56.0777 45.4233 54.6507C47.191 53.2236 48.3625 51.1883 48.7087 48.9431C48.7514 48.698 48.7807 48.4508 48.7965 48.2025L49.4206 37.7174L49.4172 37.7172Z" fill="white"/>
</g>
<mask id="path-4-outside-1_1_1320" maskUnits="userSpaceOnUse" x="32.6523" y="15" width="2.00001" height="7" fill="black">
<rect fill="white" x="32.6523" y="15" width="2.00001" height="7"/>
<path fill-rule="evenodd" clip-rule="evenodd" d="M33.8915 16C33.8272 16.001 33.7658 16.0275 33.721 16.0737C33.6761 16.1199 33.6515 16.182 33.6524 16.2463L33.6524 20.462C33.6518 20.4942 33.6577 20.5263 33.6696 20.5562C33.6816 20.5862 33.6994 20.6134 33.722 20.6364C33.7446 20.6594 33.7715 20.6777 33.8013 20.6902C33.831 20.7027 33.863 20.7091 33.8952 20.7091C33.9275 20.7091 33.9594 20.7027 33.9891 20.6902C34.0189 20.6777 34.0458 20.6594 34.0684 20.6364C34.091 20.6134 34.1088 20.5862 34.1208 20.5562C34.1327 20.5263 34.1386 20.4942 34.138 20.462L34.138 16.2463C34.1385 16.2139 34.1324 16.1816 34.1202 16.1515C34.108 16.1214 34.0899 16.094 34.0669 16.0711C34.0439 16.0481 34.0165 16.03 33.9864 16.0178C33.9563 16.0056 33.924 15.9995 33.8915 16Z"/>
</mask>
<path fill-rule="evenodd" clip-rule="evenodd" d="M33.8915 16C33.8272 16.001 33.7658 16.0275 33.721 16.0737C33.6761 16.1199 33.6515 16.182 33.6524 16.2463L33.6524 20.462C33.6518 20.4942 33.6577 20.5263 33.6696 20.5562C33.6816 20.5862 33.6994 20.6134 33.722 20.6364C33.7446 20.6594 33.7715 20.6777 33.8013 20.6902C33.831 20.7027 33.863 20.7091 33.8952 20.7091C33.9275 20.7091 33.9594 20.7027 33.9891 20.6902C34.0189 20.6777 34.0458 20.6594 34.0684 20.6364C34.091 20.6134 34.1088 20.5862 34.1208 20.5562C34.1327 20.5263 34.1386 20.4942 34.138 20.462L34.138 16.2463C34.1385 16.2139 34.1324 16.1816 34.1202 16.1515C34.108 16.1214 34.0899 16.094 34.0669 16.0711C34.0439 16.0481 34.0165 16.03 33.9864 16.0178C33.9563 16.0056 33.924 15.9995 33.8915 16Z" fill="white"/>
<path d="M33.8915 16L33.884 15.5001L33.884 15.5001L33.8915 16ZM33.6524 16.2463L34.1524 16.2463L34.1523 16.2391L33.6524 16.2463ZM33.6524 20.462L34.1524 20.4707L34.1524 20.462L33.6524 20.462ZM34.138 20.462L33.638 20.462L33.6381 20.4707L34.138 20.462ZM34.138 16.2463L33.638 16.2391L33.638 16.2463L34.138 16.2463ZM33.884 15.5001C33.6871 15.5031 33.4995 15.584 33.3622 15.7254L34.0797 16.422C34.0322 16.4709 33.9672 16.4989 33.8991 16.5L33.884 15.5001ZM33.3622 15.7254C33.2251 15.8667 33.1496 16.0566 33.1524 16.2535L34.1523 16.2391C34.1533 16.3073 34.1272 16.3731 34.0797 16.422L33.3622 15.7254ZM33.1524 16.2463L33.1524 20.462L34.1524 20.462L34.1524 16.2463L33.1524 16.2463ZM33.1525 20.4532C33.1507 20.5518 33.1687 20.6498 33.2052 20.7415L34.134 20.371C34.1467 20.4027 34.1529 20.4366 34.1523 20.4707L33.1525 20.4532ZM33.2052 20.7415C33.2418 20.8332 33.2963 20.9166 33.3654 20.9869L34.0786 20.286C34.1025 20.3103 34.1214 20.3391 34.134 20.371L33.2052 20.7415ZM33.3654 20.9869C33.4344 21.0572 33.5169 21.1131 33.6079 21.1513L33.9946 20.2291C34.0262 20.2423 34.0548 20.2617 34.0786 20.286L33.3654 20.9869ZM33.6079 21.1513C33.6989 21.1894 33.7965 21.2091 33.8952 21.2091L33.8952 20.2091C33.9294 20.2091 33.9632 20.2159 33.9946 20.2291L33.6079 21.1513ZM33.8952 21.2091C33.9939 21.2091 34.0916 21.1894 34.1825 21.1513L33.7958 20.2291C33.8272 20.2159 33.861 20.2091 33.8952 20.2091L33.8952 21.2091ZM34.1825 21.1513C34.2736 21.1131 34.356 21.0572 34.4251 20.9869L33.7118 20.286C33.7357 20.2617 33.7642 20.2423 33.7958 20.2291L34.1825 21.1513ZM34.4251 20.9869C34.4941 20.9166 34.5486 20.8332 34.5852 20.7415L33.6564 20.371C33.6691 20.3392 33.6879 20.3103 33.7118 20.286L34.4251 20.9869ZM34.5852 20.7415C34.6218 20.6498 34.6397 20.5518 34.638 20.4532L33.6381 20.4707C33.6375 20.4366 33.6437 20.4027 33.6564 20.371L34.5852 20.7415ZM34.638 20.462L34.638 16.2463L33.638 16.2463L33.638 20.462L34.638 20.462ZM34.638 16.2535C34.6394 16.1542 34.6209 16.0555 34.5835 15.9634L33.6569 16.3396C33.644 16.3077 33.6376 16.2735 33.6381 16.2392L34.638 16.2535ZM34.5835 15.9634C34.5461 15.8713 34.4906 15.7877 34.4203 15.7174L33.7134 16.4247C33.6891 16.4004 33.6699 16.3715 33.6569 16.3396L34.5835 15.9634ZM34.4203 15.7174C34.3499 15.647 34.2661 15.5917 34.1742 15.5544L33.7986 16.4812C33.7669 16.4683 33.7379 16.4492 33.7134 16.4247L34.4203 15.7174ZM34.1742 15.5544C34.0821 15.5171 33.9835 15.4986 33.884 15.5001L33.8991 16.5C33.8646 16.5005 33.8304 16.4941 33.7986 16.4812L34.1742 15.5544Z" fill="white" mask="url(#path-4-outside-1_1_1320)"/>
<mask id="path-6-outside-2_1_1320" maskUnits="userSpaceOnUse" x="36.6787" y="23.2422" width="7" height="2" fill="black">
<rect fill="white" x="36.6787" y="23.2422" width="7" height="2"/>
<path fill-rule="evenodd" clip-rule="evenodd" d="M37.925 24.2422C37.8929 24.2418 37.8609 24.2477 37.831 24.2597C37.8012 24.2717 37.774 24.2895 37.7511 24.3121C37.7282 24.3347 37.71 24.3616 37.6975 24.3913C37.6851 24.421 37.6787 24.4529 37.6787 24.4851C37.6787 24.5172 37.6851 24.5491 37.6975 24.5788C37.71 24.6085 37.7282 24.6354 37.7511 24.658C37.774 24.6806 37.8012 24.6984 37.831 24.7104C37.8609 24.7224 37.8929 24.7283 37.925 24.7279L42.1359 24.7279C42.168 24.7283 42.2 24.7224 42.2299 24.7104C42.2597 24.6984 42.2869 24.6806 42.3098 24.658C42.3328 24.6354 42.351 24.6085 42.3634 24.5788C42.3758 24.5491 42.3822 24.5172 42.3822 24.4851C42.3822 24.4529 42.3758 24.421 42.3634 24.3913C42.351 24.3616 42.3328 24.3347 42.3098 24.3121C42.2869 24.2895 42.2597 24.2717 42.2299 24.2597C42.2 24.2477 42.168 24.2418 42.1359 24.2422L37.925 24.2422Z"/>
</mask>
<path fill-rule="evenodd" clip-rule="evenodd" d="M37.925 24.2422C37.8929 24.2418 37.8609 24.2477 37.831 24.2597C37.8012 24.2717 37.774 24.2895 37.7511 24.3121C37.7282 24.3347 37.71 24.3616 37.6975 24.3913C37.6851 24.421 37.6787 24.4529 37.6787 24.4851C37.6787 24.5172 37.6851 24.5491 37.6975 24.5788C37.71 24.6085 37.7282 24.6354 37.7511 24.658C37.774 24.6806 37.8012 24.6984 37.831 24.7104C37.8609 24.7224 37.8929 24.7283 37.925 24.7279L42.1359 24.7279C42.168 24.7283 42.2 24.7224 42.2299 24.7104C42.2597 24.6984 42.2869 24.6806 42.3098 24.658C42.3328 24.6354 42.351 24.6085 42.3634 24.5788C42.3758 24.5491 42.3822 24.5172 42.3822 24.4851C42.3822 24.4529 42.3758 24.421 42.3634 24.3913C42.351 24.3616 42.3328 24.3347 42.3098 24.3121C42.2869 24.2895 42.2597 24.2717 42.2299 24.2597C42.2 24.2477 42.168 24.2418 42.1359 24.2422L37.925 24.2422Z" fill="white"/>
<path d="M37.925 24.2422L37.9179 24.7422L37.925 24.7422L37.925 24.2422ZM37.6787 24.4851L38.1787 24.4851L37.6787 24.4851ZM37.925 24.7279L37.925 24.2278L37.9179 24.2279L37.925 24.7279ZM42.1359 24.7279L42.143 24.2279L42.1359 24.2279L42.1359 24.7279ZM42.1359 24.2422L42.1359 24.7423L42.143 24.7422L42.1359 24.2422ZM37.9322 23.7423C37.834 23.7409 37.7362 23.7589 37.6447 23.7957L38.0174 24.7236C37.9856 24.7364 37.9518 24.7426 37.9179 24.7422L37.9322 23.7423ZM37.6447 23.7957C37.5533 23.8324 37.4702 23.8869 37.4001 23.956L38.1021 24.6682C38.0778 24.6921 38.0491 24.7109 38.0174 24.7236L37.6447 23.7957ZM37.4001 23.956C37.3299 24.0252 37.2742 24.1076 37.2363 24.1983L38.1588 24.5843C38.1457 24.6157 38.1264 24.6442 38.1021 24.6682L37.4001 23.956ZM37.2363 24.1983C37.1983 24.2891 37.1787 24.3866 37.1787 24.4851L38.1787 24.4851C38.1787 24.5191 38.1719 24.5529 38.1588 24.5843L37.2363 24.1983ZM37.1787 24.4851C37.1787 24.5835 37.1983 24.681 37.2363 24.7718L38.1588 24.3858C38.1719 24.4172 38.1787 24.4509 38.1787 24.4851L37.1787 24.4851ZM37.2363 24.7718C37.2742 24.8625 37.3299 24.9449 37.4001 25.0141L38.1021 24.3019C38.1264 24.3259 38.1457 24.3544 38.1588 24.3858L37.2363 24.7718ZM37.4001 25.0141C37.4702 25.0832 37.5533 25.1377 37.6447 25.1744L38.0174 24.2464C38.0491 24.2591 38.0778 24.278 38.1021 24.3019L37.4001 25.0141ZM37.6447 25.1744C37.7362 25.2111 37.834 25.2292 37.9322 25.2278L37.9179 24.2279C37.9518 24.2274 37.9856 24.2337 38.0174 24.2464L37.6447 25.1744ZM37.925 25.2279L42.1359 25.2279L42.1359 24.2279L37.925 24.2279L37.925 25.2279ZM42.1287 25.2278C42.227 25.2292 42.3247 25.2111 42.4162 25.1744L42.0435 24.2464C42.0753 24.2337 42.1091 24.2274 42.143 24.2279L42.1287 25.2278ZM42.4162 25.1744C42.5076 25.1377 42.5907 25.0832 42.6608 25.0141L41.9588 24.3019C41.9831 24.278 42.0119 24.2591 42.0435 24.2464L42.4162 25.1744ZM42.6608 25.0141C42.731 24.9449 42.7867 24.8625 42.8246 24.7718L41.9021 24.3858C41.9152 24.3544 41.9345 24.3259 41.9588 24.3019L42.6608 25.0141ZM42.8246 24.7718C42.8626 24.681 42.8822 24.5835 42.8822 24.4851L41.8822 24.4851C41.8822 24.4509 41.889 24.4172 41.9021 24.3858L42.8246 24.7718ZM42.8822 24.4851C42.8822 24.3866 42.8626 24.2891 42.8246 24.1983L41.9021 24.5843C41.889 24.5529 41.8822 24.5191 41.8822 24.4851L42.8822 24.4851ZM42.8246 24.1983C42.7867 24.1076 42.731 24.0252 42.6608 23.956L41.9588 24.6682C41.9345 24.6442 41.9152 24.6157 41.9021 24.5843L42.8246 24.1983ZM42.6608 23.956C42.5907 23.8869 42.5076 23.8324 42.4162 23.7957L42.0435 24.7236C42.0119 24.7109 41.9831 24.6921 41.9588 24.6682L42.6608 23.956ZM42.4162 23.7957C42.3247 23.7589 42.227 23.7409 42.1287 23.7423L42.143 24.7422C42.1091 24.7426 42.0753 24.7364 42.0435 24.7236L42.4162 23.7957ZM42.1359 23.7422L37.925 23.7422L37.925 24.7422L42.1359 24.7422L42.1359 23.7422Z" fill="white" mask="url(#path-6-outside-2_1_1320)"/>
<mask id="path-8-outside-3_1_1320" maskUnits="userSpaceOnUse" x="24.4082" y="23.25" width="7" height="2" fill="black">
<rect fill="white" x="24.4082" y="23.25" width="7" height="2"/>
<path fill-rule="evenodd" clip-rule="evenodd" d="M25.6545 24.25C25.6224 24.2496 25.5904 24.2555 25.5605 24.2675C25.5307 24.2795 25.5035 24.2973 25.4806 24.3199C25.4576 24.3425 25.4394 24.3694 25.427 24.3991C25.4146 24.4288 25.4082 24.4607 25.4082 24.4929C25.4082 24.525 25.4146 24.5569 25.427 24.5866C25.4394 24.6163 25.4576 24.6432 25.4806 24.6658C25.5035 24.6884 25.5307 24.7062 25.5605 24.7182C25.5904 24.7302 25.6224 24.7361 25.6545 24.7357L29.8702 24.7357C29.9024 24.7361 29.9344 24.7302 29.9642 24.7182C29.9941 24.7062 30.0213 24.6884 30.0442 24.6658C30.0671 24.6432 30.0853 24.6163 30.0977 24.5866C30.1102 24.5569 30.1166 24.525 30.1166 24.4929C30.1166 24.4607 30.1102 24.4288 30.0977 24.3991C30.0853 24.3694 30.0671 24.3425 30.0442 24.3199C30.0213 24.2973 29.9941 24.2795 29.9642 24.2675C29.9344 24.2555 29.9024 24.2496 29.8702 24.25L25.6545 24.25Z"/>
</mask>
<path fill-rule="evenodd" clip-rule="evenodd" d="M25.6545 24.25C25.6224 24.2496 25.5904 24.2555 25.5605 24.2675C25.5307 24.2795 25.5035 24.2973 25.4806 24.3199C25.4576 24.3425 25.4394 24.3694 25.427 24.3991C25.4146 24.4288 25.4082 24.4607 25.4082 24.4929C25.4082 24.525 25.4146 24.5569 25.427 24.5866C25.4394 24.6163 25.4576 24.6432 25.4806 24.6658C25.5035 24.6884 25.5307 24.7062 25.5605 24.7182C25.5904 24.7302 25.6224 24.7361 25.6545 24.7357L29.8702 24.7357C29.9024 24.7361 29.9344 24.7302 29.9642 24.7182C29.9941 24.7062 30.0213 24.6884 30.0442 24.6658C30.0671 24.6432 30.0853 24.6163 30.0977 24.5866C30.1102 24.5569 30.1166 24.525 30.1166 24.4929C30.1166 24.4607 30.1102 24.4288 30.0977 24.3991C30.0853 24.3694 30.0671 24.3425 30.0442 24.3199C30.0213 24.2973 29.9941 24.2795 29.9642 24.2675C29.9344 24.2555 29.9024 24.2496 29.8702 24.25L25.6545 24.25Z" fill="white"/>
<path d="M25.6545 24.25L25.6474 24.75L25.6545 24.75L25.6545 24.25ZM25.6545 24.7357L25.6545 24.2356L25.6474 24.2357L25.6545 24.7357ZM29.8702 24.7357L29.8774 24.2357L29.8702 24.2357L29.8702 24.7357ZM29.8702 24.25L29.8702 24.7501L29.8774 24.75L29.8702 24.25ZM25.6617 23.7501C25.5634 23.7487 25.4657 23.7668 25.3742 23.8035L25.7469 24.7315C25.7151 24.7442 25.6813 24.7505 25.6474 24.75L25.6617 23.7501ZM25.3742 23.8035C25.2828 23.8402 25.1997 23.8947 25.1296 23.9638L25.8316 24.676C25.8073 24.6999 25.7785 24.7187 25.7469 24.7315L25.3742 23.8035ZM25.1296 23.9638C25.0594 24.033 25.0037 24.1154 24.9658 24.2061L25.8883 24.5921C25.8752 24.6235 25.8559 24.652 25.8316 24.676L25.1296 23.9638ZM24.9658 24.2061C24.9278 24.297 24.9082 24.3944 24.9082 24.4929L25.9082 24.4929C25.9082 24.5269 25.9014 24.5607 25.8883 24.5921L24.9658 24.2061ZM24.9082 24.4929C24.9082 24.5914 24.9278 24.6888 24.9658 24.7796L25.8883 24.3936C25.9014 24.425 25.9082 24.4587 25.9082 24.4929L24.9082 24.4929ZM24.9658 24.7796C25.0037 24.8703 25.0594 24.9527 25.1296 25.0219L25.8316 24.3097C25.8559 24.3337 25.8752 24.3622 25.8883 24.3936L24.9658 24.7796ZM25.1296 25.0219C25.1997 25.091 25.2828 25.1455 25.3742 25.1822L25.7469 24.2542C25.7785 24.267 25.8073 24.2858 25.8316 24.3097L25.1296 25.0219ZM25.3742 25.1822C25.4657 25.2189 25.5634 25.237 25.6617 25.2356L25.6474 24.2357C25.6813 24.2352 25.7151 24.2415 25.7469 24.2542L25.3742 25.1822ZM25.6545 25.2357L29.8702 25.2357L29.8702 24.2357L25.6545 24.2357L25.6545 25.2357ZM29.8631 25.2356C29.9613 25.237 30.0591 25.2189 30.1506 25.1822L29.7778 24.2542C29.8096 24.2415 29.8435 24.2352 29.8774 24.2357L29.8631 25.2356ZM30.1506 25.1822C30.242 25.1455 30.3251 25.091 30.3952 25.0219L29.6932 24.3097C29.7174 24.2858 29.7462 24.267 29.7778 24.2542L30.1506 25.1822ZM30.3952 25.0219C30.4654 24.9527 30.521 24.8703 30.559 24.7796L29.6365 24.3936C29.6496 24.3622 29.6688 24.3337 29.6932 24.3097L30.3952 25.0219ZM30.559 24.7796C30.597 24.6888 30.6166 24.5914 30.6166 24.4929L29.6166 24.4929C29.6166 24.4587 29.6233 24.425 29.6365 24.3936L30.559 24.7796ZM30.6166 24.4929C30.6166 24.3944 30.597 24.297 30.559 24.2061L29.6365 24.5921C29.6233 24.5607 29.6166 24.5269 29.6166 24.4929L30.6166 24.4929ZM30.559 24.2061C30.521 24.1154 30.4654 24.033 30.3952 23.9638L29.6932 24.676C29.6688 24.652 29.6496 24.6235 29.6365 24.5921L30.559 24.2061ZM30.3952 23.9638C30.3251 23.8947 30.242 23.8402 30.1506 23.8035L29.7778 24.7315C29.7462 24.7187 29.7174 24.6999 29.6932 24.676L30.3952 23.9638ZM30.1506 23.8035C30.0591 23.7668 29.9613 23.7487 29.8631 23.7501L29.8774 24.75C29.8435 24.7505 29.8096 24.7442 29.7778 24.7315L30.1506 23.8035ZM29.8702 23.75L25.6545 23.75L25.6545 24.75L29.8702 24.75L29.8702 23.75Z" fill="white" mask="url(#path-8-outside-3_1_1320)"/>
<mask id="path-10-outside-4_1_1320" maskUnits="userSpaceOnUse" x="26.8232" y="17.4141" width="5" height="5" fill="black">
<rect fill="white" x="26.8232" y="17.4141" width="5" height="5"/>
<path fill-rule="evenodd" clip-rule="evenodd" d="M28.0658 18.4141C28.0175 18.4141 27.9703 18.4286 27.9303 18.4556C27.8903 18.4826 27.8592 18.5209 27.841 18.5656C27.8229 18.6104 27.8185 18.6596 27.8284 18.7068C27.8383 18.7541 27.8621 18.7973 27.8967 18.831L30.8788 21.813C30.9011 21.8367 30.9279 21.8557 30.9576 21.8689C30.9874 21.882 31.0195 21.8891 31.052 21.8896C31.0846 21.8901 31.1169 21.8841 31.147 21.8718C31.1772 21.8596 31.2046 21.8415 31.2276 21.8185C31.2506 21.7955 31.2687 21.768 31.2809 21.7379C31.2931 21.7077 31.2992 21.6754 31.2987 21.6429C31.2981 21.6104 31.2911 21.5783 31.2779 21.5485C31.2648 21.5188 31.2458 21.492 31.2221 21.4697L28.24 18.4877C28.2174 18.4644 28.1903 18.4459 28.1604 18.4332C28.1304 18.4206 28.0983 18.4141 28.0658 18.4141Z"/>
</mask>
<path fill-rule="evenodd" clip-rule="evenodd" d="M28.0658 18.4141C28.0175 18.4141 27.9703 18.4286 27.9303 18.4556C27.8903 18.4826 27.8592 18.5209 27.841 18.5656C27.8229 18.6104 27.8185 18.6596 27.8284 18.7068C27.8383 18.7541 27.8621 18.7973 27.8967 18.831L30.8788 21.813C30.9011 21.8367 30.9279 21.8557 30.9576 21.8689C30.9874 21.882 31.0195 21.8891 31.052 21.8896C31.0846 21.8901 31.1169 21.8841 31.147 21.8718C31.1772 21.8596 31.2046 21.8415 31.2276 21.8185C31.2506 21.7955 31.2687 21.768 31.2809 21.7379C31.2931 21.7077 31.2992 21.6754 31.2987 21.6429C31.2981 21.6104 31.2911 21.5783 31.2779 21.5485C31.2648 21.5188 31.2458 21.492 31.2221 21.4697L28.24 18.4877C28.2174 18.4644 28.1903 18.4459 28.1604 18.4332C28.1304 18.4206 28.0983 18.4141 28.0658 18.4141Z" fill="white"/>
<path d="M28.0658 18.4141L28.0658 17.9141L28.0652 17.9141L28.0658 18.4141ZM27.8967 18.831L28.2503 18.4774L28.2454 18.4726L27.8967 18.831ZM30.8788 21.813L31.2433 21.4707L31.2379 21.465L31.2324 21.4595L30.8788 21.813ZM31.2221 21.4697L30.8685 21.8233L30.8741 21.8288L30.8798 21.8342L31.2221 21.4697ZM28.24 18.4877L27.8814 18.8362L27.8865 18.8412L28.24 18.4877ZM28.0652 17.9141C27.9175 17.9142 27.7732 17.9585 27.6507 18.041L28.2099 18.8701C28.1675 18.8987 28.1176 18.914 28.0664 18.9141L28.0652 17.9141ZM27.6507 18.041C27.5283 18.1236 27.4332 18.2408 27.3777 18.3777L28.3044 18.7535C28.2852 18.801 28.2522 18.8416 28.2099 18.8701L27.6507 18.041ZM27.3777 18.3777C27.3222 18.5146 27.3087 18.665 27.3391 18.8095L28.3178 18.6041C28.3283 18.6541 28.3236 18.7062 28.3044 18.7535L27.3777 18.3777ZM27.3391 18.8095C27.3694 18.9541 27.4422 19.0863 27.5481 19.1893L28.2454 18.4726C28.2821 18.5083 28.3072 18.554 28.3178 18.6041L27.3391 18.8095ZM27.5432 19.1845L30.5253 22.1666L31.2324 21.4595L28.2503 18.4774L27.5432 19.1845ZM30.5144 22.1553C30.5825 22.2279 30.6645 22.286 30.7555 22.3262L31.1598 21.4115C31.1912 21.4255 31.2196 21.4456 31.2433 21.4707L30.5144 22.1553ZM30.7555 22.3262C30.8465 22.3664 30.9447 22.388 31.0442 22.3895L31.0598 21.3896C31.0943 21.3902 31.1283 21.3976 31.1598 21.4115L30.7555 22.3262ZM31.0442 22.3895C31.1436 22.3911 31.2424 22.3727 31.3348 22.3352L30.9593 21.4084C30.9913 21.3954 31.0255 21.3891 31.0598 21.3896L31.0442 22.3895ZM31.3348 22.3352C31.427 22.2979 31.5107 22.2424 31.5812 22.172L30.874 21.4649C30.8984 21.4405 30.9274 21.4213 30.9593 21.4084L31.3348 22.3352ZM31.5812 22.172C31.6516 22.1015 31.7071 22.0177 31.7444 21.9256L30.8175 21.5502C30.8304 21.5184 30.8496 21.4894 30.874 21.4649L31.5812 22.172ZM31.7444 21.9256C31.7817 21.8334 31.8002 21.7346 31.7986 21.635L30.7987 21.6508C30.7982 21.6163 30.8046 21.5821 30.8175 21.5502L31.7444 21.9256ZM31.7986 21.635C31.797 21.5355 31.7755 21.4373 31.7352 21.3463L30.8207 21.7507C30.8067 21.7193 30.7993 21.6853 30.7987 21.6508L31.7986 21.635ZM31.7352 21.3463C31.695 21.2553 31.6369 21.1733 31.5643 21.1052L30.8798 21.8342C30.8547 21.8106 30.8346 21.7822 30.8207 21.7507L31.7352 21.3463ZM31.5756 21.1162L28.5936 18.1341L27.8865 18.8412L30.8685 21.8233L31.5756 21.1162ZM28.5986 18.1392C28.5293 18.0679 28.4464 18.0113 28.355 17.9727L27.9657 18.8938C27.9341 18.8804 27.9054 18.8608 27.8814 18.8361L28.5986 18.1392ZM28.355 17.9727C28.2636 17.934 28.1653 17.9141 28.0658 17.9141L28.0658 18.9141C28.0313 18.9141 27.9973 18.9071 27.9657 18.8938L28.355 17.9727Z" fill="white" mask="url(#path-10-outside-4_1_1320)"/>
<mask id="path-12-outside-5_1_1320" maskUnits="userSpaceOnUse" x="35.501" y="17.4141" width="5" height="5" fill="black">
<rect fill="white" x="35.501" y="17.4141" width="5" height="5"/>
<path fill-rule="evenodd" clip-rule="evenodd" d="M39.7207 18.4142C39.6577 18.4161 39.5979 18.4425 39.5539 18.4878L36.5767 21.4698C36.5532 21.4921 36.5343 21.519 36.5213 21.5487C36.5083 21.5784 36.5014 21.6105 36.501 21.6429C36.5006 21.6754 36.5067 21.7076 36.5189 21.7376C36.5312 21.7677 36.5493 21.795 36.5723 21.8179C36.5952 21.8408 36.6226 21.859 36.6527 21.8711C36.6827 21.8833 36.715 21.8893 36.7474 21.8889C36.7799 21.8884 36.8119 21.8814 36.8416 21.8683C36.8713 21.8553 36.8981 21.8364 36.9204 21.8128L39.8976 18.8308C39.9326 18.7966 39.9565 18.7527 39.9661 18.7048C39.9757 18.6568 39.9707 18.6071 39.9516 18.562C39.9325 18.517 39.9002 18.4788 39.859 18.4524C39.8178 18.426 39.7696 18.4127 39.7207 18.4142Z"/>
</mask>
<path fill-rule="evenodd" clip-rule="evenodd" d="M39.7207 18.4142C39.6577 18.4161 39.5979 18.4425 39.5539 18.4878L36.5767 21.4698C36.5532 21.4921 36.5343 21.519 36.5213 21.5487C36.5083 21.5784 36.5014 21.6105 36.501 21.6429C36.5006 21.6754 36.5067 21.7076 36.5189 21.7376C36.5312 21.7677 36.5493 21.795 36.5723 21.8179C36.5952 21.8408 36.6226 21.859 36.6527 21.8711C36.6827 21.8833 36.715 21.8893 36.7474 21.8889C36.7799 21.8884 36.8119 21.8814 36.8416 21.8683C36.8713 21.8553 36.8981 21.8364 36.9204 21.8128L39.8976 18.8308C39.9326 18.7966 39.9565 18.7527 39.9661 18.7048C39.9757 18.6568 39.9707 18.6071 39.9516 18.562C39.9325 18.517 39.9002 18.4788 39.859 18.4524C39.8178 18.426 39.7696 18.4127 39.7207 18.4142Z" fill="white"/>
<path d="M39.7207 18.4142L39.7058 17.9144L39.7054 17.9144L39.7207 18.4142ZM39.5539 18.4878L39.9078 18.8411L39.9127 18.836L39.5539 18.4878ZM36.5767 21.4698L36.9209 21.8328L36.9306 21.8231L36.5767 21.4698ZM36.9204 21.8128L36.5664 21.4594L36.5569 21.4695L36.9204 21.8128ZM39.8976 18.8308L39.5484 18.4728L39.5437 18.4775L39.8976 18.8308ZM39.7054 17.9144C39.5125 17.9203 39.3295 18.0011 39.1951 18.1396L39.9127 18.836C39.8662 18.8839 39.8029 18.9119 39.7361 18.9139L39.7054 17.9144ZM39.2001 18.1345L36.2229 21.1166L36.9306 21.8231L39.9078 18.8411L39.2001 18.1345ZM36.2327 21.107C36.1606 21.1753 36.103 21.2574 36.0632 21.3483L36.9794 21.7491C36.9657 21.7806 36.9457 21.809 36.9208 21.8326L36.2327 21.107ZM36.0632 21.3483C36.0235 21.4393 36.0023 21.5373 36.001 21.6365L37.001 21.6493C37.0005 21.6837 36.9932 21.7176 36.9794 21.7491L36.0632 21.3483ZM36.001 21.6365C35.9998 21.7358 36.0184 21.8343 36.0559 21.9262L36.982 21.549C36.9949 21.5808 37.0014 21.615 37.001 21.6493L36.001 21.6365ZM36.0559 21.9262C36.0933 22.0182 36.1488 22.1017 36.2191 22.1718L36.9255 21.464C36.9498 21.4883 36.969 21.5172 36.982 21.549L36.0559 21.9262ZM36.2191 22.1718C36.2892 22.2418 36.3728 22.2972 36.4649 22.3346L36.8404 21.4077C36.8724 21.4207 36.9013 21.4399 36.9255 21.464L36.2191 22.1718ZM36.4649 22.3346C36.5571 22.3719 36.6556 22.3903 36.7548 22.3888L36.7401 21.3889C36.7743 21.3884 36.8084 21.3948 36.8404 21.4077L36.4649 22.3346ZM36.7548 22.3888C36.854 22.3874 36.952 22.366 37.0429 22.3261L36.6403 21.4106C36.6718 21.3968 36.7057 21.3894 36.7401 21.3889L36.7548 22.3888ZM37.0429 22.3261C37.1336 22.2861 37.2156 22.2284 37.2838 22.1562L36.5569 21.4695C36.5806 21.4444 36.609 21.4244 36.6403 21.4106L37.0429 22.3261ZM37.2742 22.1661L40.2514 19.1841L39.5437 18.4775L36.5665 21.4596L37.2742 22.1661ZM40.2467 19.1887C40.3538 19.0843 40.4269 18.9499 40.4563 18.8032L39.4759 18.6063C39.4861 18.5555 39.5114 18.509 39.5485 18.4728L40.2467 19.1887ZM40.4563 18.8032C40.4858 18.6566 40.4703 18.5044 40.4118 18.3667L39.4913 18.7574C39.4711 18.7097 39.4657 18.6571 39.4759 18.6063L40.4563 18.8032ZM40.4118 18.3667C40.3534 18.229 40.2547 18.1121 40.1287 18.0314L39.5893 18.8734C39.5457 18.8455 39.5115 18.805 39.4913 18.7574L40.4118 18.3667ZM40.1287 18.0314C40.0027 17.9507 39.8553 17.9099 39.7058 17.9144L39.7357 18.9139C39.684 18.9155 39.6329 18.9014 39.5893 18.8734L40.1287 18.0314Z" fill="white" mask="url(#path-12-outside-5_1_1320)"/>
<defs>
<filter id="filter0_d_1_1320" x="22.2574" y="22.7539" width="29.1632" height="37.9211" filterUnits="userSpaceOnUse" color-interpolation-filters="sRGB">
<feFlood flood-opacity="0" result="BackgroundImageFix"/>
<feColorMatrix in="SourceAlpha" type="matrix" values="0 0 0 0 0 0 0 0 0 0 0 0 0 0 0 0 0 0 127 0" result="hardAlpha"/>
<feOffset dy="2"/>
<feGaussianBlur stdDeviation="1"/>
<feComposite in2="hardAlpha" operator="out"/>
<feColorMatrix type="matrix" values="0 0 0 0 0 0 0 0 0 0 0 0 0 0 0 0 0 0 0.12 0"/>
<feBlend mode="normal" in2="BackgroundImageFix" result="effect1_dropShadow_1_1320"/>
<feBlend mode="normal" in="SourceGraphic" in2="effect1_dropShadow_1_1320" result="shape"/>
</filter>
<linearGradient id="paint0_linear_1_1320" x1="37" y1="0" x2="37" y2="74" gradientUnits="userSpaceOnUse">
<stop stop-color="#DFBA19"/>
<stop offset="1" stop-color="#FD574C"/>
</linearGradient>
<linearGradient id="paint1_linear_1_1320" x1="37" y1="5" x2="37" y2="69" gradientUnits="userSpaceOnUse">
<stop stop-color="#DFBA19"/>
<stop offset="1" stop-color="#FF8C68"/>
</linearGradient>
</defs>
</svg>
